<svg data-v-7baf8e61="" xmlns="http://www.w3.org/2000/svg" width="106" height="41" viewBox="0 0 106 41" class="footer__logo"><g data-v-7baf8e61="" fill="#0864FF" fill-rule="evenodd"><path data-v-7baf8e61="" d="M86.316 40.39h6.1L71.432 19.6a2.17 2.17 0 0 0-3.05 0 2.124 2.124 0 0 0 0 3.021l17.935 17.77zM33.291 15.756a2.13 2.13 0 0 0 1.178 2.788 2.165 2.165 0 0 0 2.815-1.167c1.417-3.428 1.239-7.023.606-9.956 3.633 2.674 9.3 7.336 17.24 15.2l17.935 17.77h6.1L58.18 19.599C42.066 3.635 34.903.375 34.606.244a2.168 2.168 0 0 0-2.467.509 2.124 2.124 0 0 0-.296 2.481c.038.067 3.784 6.871 1.448 12.522M99.62 40.39h6.1L87.51 22.348a2.17 2.17 0 0 0-3.051 0 2.123 2.123 0 0 0 0 3.022l15.16 15.02zM42.452 40.39h6.101L27.567 19.6a2.17 2.17 0 0 0-3.05 0 2.123 2.123 0 0 0 0 3.021l17.935 17.77zM10.551 40.39l-6.74-6.678a2.171 2.171 0 0 0-3.052 0 2.124 2.124 0 0 0 0 3.023L4.45 40.39h6.101zM29.2 40.39H35.3L22.225 27.435a2.173 2.173 0 0 0-3.05 0 2.124 2.124 0 0 0 0 3.023L29.2 40.39zM15.947 40.39h6.102l-6.742-6.678a2.17 2.17 0 0 0-3.05 0 2.122 2.122 0 0 0 0 3.023l3.69 3.655z"></path></g></svg>
